<mxfile host="app.diagrams.net" modified="2024-04-09T07:22:18.425Z" agent="Mozilla/5.0 (Windows NT 10.0; Win64; x64) AppleWebKit/537.36 (KHTML, like Gecko) Chrome/123.0.0.0 Safari/537.36" etag="KO-k_M7L22MfDRd2sdI9" version="22.1.20" type="device">
  <diagram name="Lapa-1" id="_OQP_fC1s__N9wKmEFw5">
    <mxGraphModel dx="766" dy="407" grid="1" gridSize="10" guides="1" tooltips="1" connect="1" arrows="1" fold="1" page="1" pageScale="1" pageWidth="827" pageHeight="1169" math="0" shadow="0">
      <root>
        <mxCell id="0" />
        <mxCell id="1" parent="0" />
        <mxCell id="NEg_UrPFkVjUSTInXoCk-1" value="Lietotajs" style="swimlane;childLayout=stackLayout;horizontal=1;startSize=50;horizontalStack=0;rounded=1;fontSize=14;fontStyle=0;strokeWidth=2;resizeParent=0;resizeLast=1;shadow=0;dashed=0;align=center;arcSize=4;whiteSpace=wrap;html=1;" vertex="1" parent="1">
          <mxGeometry x="320" y="160" width="160" height="170" as="geometry" />
        </mxCell>
        <mxCell id="NEg_UrPFkVjUSTInXoCk-2" value="Lietotajs_ID(PK)(Integer)&lt;br&gt;Datu_ID(FK)(Integer)&lt;br&gt;Zina_ID(FK)(Integer)&lt;br&gt;" style="align=left;strokeColor=none;fillColor=none;spacingLeft=4;fontSize=12;verticalAlign=top;resizable=0;rotatable=0;part=1;html=1;" vertex="1" parent="NEg_UrPFkVjUSTInXoCk-1">
          <mxGeometry y="50" width="160" height="120" as="geometry" />
        </mxCell>
        <mxCell id="NEg_UrPFkVjUSTInXoCk-3" value="Lietotaja_dati" style="swimlane;childLayout=stackLayout;horizontal=1;startSize=50;horizontalStack=0;rounded=1;fontSize=14;fontStyle=0;strokeWidth=2;resizeParent=0;resizeLast=1;shadow=0;dashed=0;align=center;arcSize=4;whiteSpace=wrap;html=1;" vertex="1" parent="1">
          <mxGeometry x="80" y="240" width="160" height="160" as="geometry" />
        </mxCell>
        <mxCell id="NEg_UrPFkVjUSTInXoCk-4" value="Datu_ID(PK)(Integer)&lt;br&gt;Lietotajvards(Text)&lt;br&gt;Parole(Text)&lt;br&gt;Vards(Text)&lt;br style=&quot;border-color: var(--border-color);&quot;&gt;Uzvards(Text)&lt;br style=&quot;border-color: var(--border-color);&quot;&gt;E-pasts(Text)&lt;br style=&quot;border-color: var(--border-color);&quot;&gt;Tel-nr(Text)" style="align=left;strokeColor=none;fillColor=none;spacingLeft=4;fontSize=12;verticalAlign=top;resizable=0;rotatable=0;part=1;html=1;" vertex="1" parent="NEg_UrPFkVjUSTInXoCk-3">
          <mxGeometry y="50" width="160" height="110" as="geometry" />
        </mxCell>
        <mxCell id="NEg_UrPFkVjUSTInXoCk-5" value="Zina" style="swimlane;childLayout=stackLayout;horizontal=1;startSize=50;horizontalStack=0;rounded=1;fontSize=14;fontStyle=0;strokeWidth=2;resizeParent=0;resizeLast=1;shadow=0;dashed=0;align=center;arcSize=4;whiteSpace=wrap;html=1;" vertex="1" parent="1">
          <mxGeometry x="560" y="280" width="160" height="120" as="geometry" />
        </mxCell>
        <mxCell id="NEg_UrPFkVjUSTInXoCk-6" value="Zina_ID(PK)(Integer)&lt;br&gt;Teksts(Text)" style="align=left;strokeColor=none;fillColor=none;spacingLeft=4;fontSize=12;verticalAlign=top;resizable=0;rotatable=0;part=1;html=1;" vertex="1" parent="NEg_UrPFkVjUSTInXoCk-5">
          <mxGeometry y="50" width="160" height="70" as="geometry" />
        </mxCell>
        <mxCell id="NEg_UrPFkVjUSTInXoCk-7" value="" style="edgeStyle=entityRelationEdgeStyle;fontSize=12;html=1;endArrow=ERoneToMany;rounded=0;exitX=0.997;exitY=0.175;exitDx=0;exitDy=0;exitPerimeter=0;entryX=0;entryY=0.25;entryDx=0;entryDy=0;" edge="1" parent="1" source="NEg_UrPFkVjUSTInXoCk-4" target="NEg_UrPFkVjUSTInXoCk-2">
          <mxGeometry width="100" height="100" relative="1" as="geometry">
            <mxPoint x="290" y="370" as="sourcePoint" />
            <mxPoint x="240" y="230" as="targetPoint" />
          </mxGeometry>
        </mxCell>
        <mxCell id="NEg_UrPFkVjUSTInXoCk-8" value="" style="edgeStyle=entityRelationEdgeStyle;fontSize=12;html=1;endArrow=ERoneToMany;rounded=0;exitX=0.001;exitY=0.148;exitDx=0;exitDy=0;exitPerimeter=0;entryX=1.004;entryY=0.394;entryDx=0;entryDy=0;entryPerimeter=0;" edge="1" parent="1" source="NEg_UrPFkVjUSTInXoCk-6" target="NEg_UrPFkVjUSTInXoCk-2">
          <mxGeometry width="100" height="100" relative="1" as="geometry">
            <mxPoint x="420" y="500" as="sourcePoint" />
            <mxPoint x="520" y="400" as="targetPoint" />
          </mxGeometry>
        </mxCell>
      </root>
    </mxGraphModel>
  </diagram>
</mxfile>
